<svg width="32" height="32" viewBox="0 0 32 32" fill="none" xmlns="http://www.w3.org/2000/svg">
  <!-- Chat bubble background -->
  <path d="M8 6C8 4.89543 8.89543 4 10 4H18C19.1046 4 20 4.89543 20 6V18C20 19.1046 19.1046 20 18 20H10C8.89543 20 8 19.1046 8 18V6Z" fill="#667eea"/>
  
  <!-- Chat bubble tail -->
  <path d="M10 20L14 24L14 20H10Z" fill="#667eea"/>
  
  <!-- Message lines -->
  <rect x="11" y="8" width="10" height="1.5" rx="0.75" fill="white"/>
  <rect x="11" y="11" width="8" height="1.5" rx="0.75" fill="white"/>
  <rect x="11" y="14" width="6" height="1.5" rx="0.75" fill="white"/>
  
  <!-- Connection dots -->
  <circle cx="24" cy="8" r="1.5" fill="#764ba2"/>
  <circle cx="24" cy="12" r="1.5" fill="#764ba2"/>
  <circle cx="24" cy="16" r="1.5" fill="#764ba2"/>
</svg>
