<svg width="512" height="512" viewBox="0 0 512 512" fill="none" xmlns="http://www.w3.org/2000/svg">
  <!-- Background circle -->
  <circle cx="256" cy="256" r="256" fill="url(#gradient)"/>
  
  <!-- Chat bubble background -->
  <path d="M128 96C128 78.3269 142.327 64 160 64H288C305.673 64 320 78.3269 320 96V288C320 305.673 305.673 320 288 320H160C142.327 320 128 305.673 128 288V96Z" fill="white"/>
  
  <!-- Chat bubble tail -->
  <path d="M160 320L224 384L224 320H160Z" fill="white"/>
  
  <!-- Message lines -->
  <rect x="176" y="128" width="160" height="16" rx="8" fill="#667eea"/>
  <rect x="176" y="176" width="128" height="16" rx="8" fill="#667eea"/>
  <rect x="176" y="224" width="96" height="16" rx="8" fill="#667eea"/>
  
  <!-- Connection dots -->
  <circle cx="384" cy="128" r="16" fill="#764ba2"/>
  <circle cx="384" cy="192" r="16" fill="#764ba2"/>
  <circle cx="384" cy="256" r="16" fill="#764ba2"/>
  
  <!-- Gradient definition -->
  <defs>
    <linearGradient id="gradient" x1="0%" y1="0%" x2="100%" y2="100%">
      <stop offset="0%" style="stop-color:#667eea;stop-opacity:1" />
      <stop offset="100%" style="stop-color:#764ba2;stop-opacity:1" />
    </linearGradient>
  </defs>
</svg>
